<?xml version="1.0" standalone="no"?>
<!DOCTYPE svg PUBLIC "-//W3C//DTD SVG 20010904//EN"
 "http://www.w3.org/TR/2001/REC-SVG-20010904/DTD/svg10.dtd">
<svg version="1.0" xmlns="http://www.w3.org/2000/svg"
 width="512.000000pt" height="512.000000pt" viewBox="0 0 512.000000 512.000000"
 preserveAspectRatio="xMidYMid meet">

<g transform="translate(0.000000,512.000000) scale(0.100000,-0.100000)"
fill="#000000" stroke="none">
<path d="M1150 5109 c-150 -29 -291 -174 -320 -328 -6 -33 -10 -297 -10 -677
l0 -623 -96 -45 c-630 -298 -897 -1036 -603 -1665 140 -300 410 -543 724 -652
544 -188 1156 25 1463 509 l47 74 5 -628 c5 -617 6 -630 27 -694 61 -178 209
-315 391 -361 72 -18 106 -20 361 -17 l281 3 27 27 c38 39 38 97 0 136 l-27
27 -293 6 c-183 3 -305 10 -327 17 -106 36 -206 149 -229 258 -9 44 -11 219
-9 684 l3 625 29 63 c37 79 114 152 191 181 45 17 79 21 176 21 183 0 211 18
219 138 l5 74 115 -92 c63 -51 129 -99 147 -106 26 -11 143 -14 604 -14 412 0
583 -3 613 -12 88 -25 175 -97 215 -177 38 -75 41 -125 41 -744 0 -669 0 -669
-65 -763 -38 -55 -117 -116 -175 -136 -21 -7 -139 -14 -297 -17 l-263 -6 -27
-27 c-38 -39 -38 -97 0 -136 l27 -27 251 -3 c225 -3 259 -1 331 17 102 26 177
69 254 145 75 76 119 151 144 252 19 73 20 111 20 704 0 401 -4 648 -11 686
-16 88 -78 210 -141 273 -137 140 -262 180 -555 181 l-113 0 0 1234 c0 792 -4
1253 -10 1287 -30 159 -170 299 -329 329 -67 13 -2746 12 -2811 -1z m846 -211
c-9 -13 -27 -43 -39 -68 -20 -41 -22 -63 -25 -237 l-3 -193 -455 0 -454 0 0
173 c0 190 8 223 66 281 66 65 66 66 518 66 l408 0 -16 -22z m2104 -1668 l0
-970 -295 0 -296 0 -172 138 c-95 76 -183 146 -197 155 -36 25 -93 22 -127 -7
-28 -24 -28 -26 -31 -155 -3 -91 -7 -131 -15 -131 -55 -1 -192 -22 -232 -35
-70 -24 -152 -75 -209 -132 -31 -31 -46 -41 -43 -28 4 11 11 68 17 127 18 181
-15 408 -84 577 l-26 65 154 155 c84 86 157 166 161 179 3 12 1 38 -5 57 -21
63 -33 65 -370 65 l-301 0 -72 49 c-250 169 -549 241 -864 207 l-73 -8 0 331
0 331 1540 0 1540 0 0 -970z m-2748 119 c187 -20 379 -92 516 -194 35 -25 75
-50 88 -56 14 -5 111 -9 217 -9 l191 0 -97 -99 c-111 -113 -116 -126 -71 -221
86 -181 120 -372 102 -568 -15 -167 -72 -332 -164 -474 -67 -103 -230 -262
-330 -321 -163 -96 -318 -144 -501 -154 -575 -31 -1071 421 -1100 1002 -27
550 390 1037 937 1094 47 4 90 9 97 10 7 0 59 -4 115 -10z"/>
<path d="M1255 4727 c-48 -48 -48 -86 0 -134 31 -31 40 -35 72 -30 117 19 117
175 0 194 -32 5 -41 1 -72 -30z"/>
<path d="M1664 4751 c-32 -14 -64 -60 -64 -92 0 -17 11 -41 29 -61 60 -67 166
-28 166 62 0 66 -72 116 -131 91z"/>
<path d="M2430 3873 c-81 -31 -89 -148 -13 -182 15 -7 108 -11 248 -11 140 0
233 4 248 11 60 27 71 112 21 160 -25 24 -27 24 -257 26 -128 1 -239 -1 -247
-4z"/>
<path d="M3235 3866 c-50 -22 -68 -82 -40 -135 24 -48 50 -52 303 -49 l232 3
26 27 c37 37 37 99 0 136 l-26 27 -233 2 c-177 2 -239 0 -262 -11z"/>
<path d="M2948 3385 c-34 -19 -48 -44 -48 -85 0 -42 15 -67 50 -85 23 -12 69
-15 214 -15 112 0 194 4 209 11 60 27 71 112 21 160 -25 23 -30 24 -222 26
-160 2 -202 0 -224 -12z"/>
<path d="M3645 3389 c-98 -57 -50 -205 59 -185 108 20 104 176 -5 192 -18 2
-43 -1 -54 -7z"/>
<path d="M2790 2908 c-14 -7 -33 -30 -43 -51 -18 -36 -18 -38 0 -74 29 -60 43
-63 287 -63 l218 0 35 35 c31 31 35 40 30 72 -4 20 -18 48 -32 62 l-25 26
-223 3 c-164 2 -228 -1 -247 -10z"/>
<path d="M3545 2911 c-64 -28 -81 -110 -32 -158 26 -27 32 -28 122 -28 89 0
96 2 121 27 37 37 37 99 0 136 -24 24 -35 27 -109 29 -45 2 -91 -1 -102 -6z"/>
<path d="M661 2659 c-66 -13 -131 -48 -183 -100 -222 -222 -76 -600 240 -617
99 -6 189 26 254 89 59 56 65 100 20 150 -34 39 -90 43 -131 10 -47 -38 -92
-53 -144 -48 -161 15 -200 228 -56 305 60 32 112 26 182 -22 54 -38 83 -44
120 -25 36 19 57 52 57 93 0 33 -7 45 -40 78 -52 49 -101 73 -175 87 -66 12
-82 12 -144 0z"/>
<path d="M1215 2646 c-94 -43 -139 -121 -133 -226 7 -113 79 -192 197 -215 50
-10 56 -14 56 -36 0 -23 -2 -24 -96 -29 -122 -6 -158 -30 -159 -103 0 -29 7
-45 29 -68 29 -29 31 -29 143 -29 88 0 122 4 153 19 180 82 180 340 0 422 -22
10 -52 19 -66 19 -14 0 -34 6 -45 14 -15 12 -17 18 -8 33 9 15 29 19 108 23
92 5 99 7 122 33 43 50 27 125 -33 156 -12 6 -66 11 -120 11 -82 0 -106 -4
-148 -24z"/>
<path d="M1771 2657 c-92 -35 -154 -124 -154 -222 0 -120 85 -215 207 -231 45
-7 60 -21 50 -49 -5 -12 -24 -15 -85 -15 -101 0 -145 -17 -165 -65 -17 -43
-11 -76 23 -110 25 -24 31 -25 140 -25 125 0 167 11 217 58 40 38 76 118 76
172 0 54 -36 134 -76 172 -34 31 -93 58 -128 58 -39 0 -56 11 -56 35 0 30 16
35 113 35 63 0 87 5 103 18 51 41 57 97 15 144 l-29 33 -109 2 c-68 2 -121 -2
-142 -10z"/>
<path d="M2740 1432 c-19 -9 -40 -28 -47 -42 -16 -32 -18 -472 -2 -518 28 -80
138 -83 178 -5 6 12 11 53 11 92 l0 71 60 0 60 0 0 -71 c0 -104 31 -148 103
-149 31 0 45 7 68 31 l29 31 0 254 0 254 -29 32 c-39 44 -98 46 -138 5 -25
-24 -28 -36 -31 -107 l-4 -80 -59 0 -59 0 0 75 c0 68 -3 77 -27 104 -36 38
-70 45 -113 23z"/>
<path d="M3344 1440 c-33 -13 -64 -59 -64 -95 0 -48 47 -95 94 -95 l36 0 0
-180 c0 -229 13 -260 105 -260 28 0 44 7 66 31 l29 31 0 189 0 189 36 0 c71 0
114 75 83 144 -21 46 -63 56 -221 55 -78 0 -153 -4 -164 -9z"/>
<path d="M3874 1440 c-12 -4 -31 -21 -43 -36 -20 -26 -21 -37 -21 -271 0 -160
4 -252 11 -266 32 -63 111 -77 160 -28 29 29 29 31 29 145 0 105 7 135 25 106
3 -5 24 -10 45 -10 21 0 42 5 45 10 18 29 25 -1 25 -106 0 -114 0 -116 29
-145 49 -49 128 -35 160 28 7 14 11 106 11 267 l0 244 -26 31 c-29 35 -80 49
-115 31 -13 -7 -48 -35 -76 -63 l-53 -51 -52 51 c-75 72 -103 84 -154 63z"/>
<path d="M4503 1430 c-50 -30 -55 -64 -51 -327 l3 -232 29 -30 30 -31 133 0
c131 0 133 0 164 28 24 21 31 36 31 64 0 71 -46 108 -137 108 l-45 0 0 170 c0
191 -9 228 -59 254 -39 21 -59 20 -98 -4z"/>
<path d="M3705 191 c-64 -27 -81 -110 -32 -158 60 -61 162 -19 162 67 0 66
-72 116 -130 91z"/>
</g>
</svg>
